<svg width="196" height="41" viewBox="0 0 196 41" fill="none" xmlns="http://www.w3.org/2000/svg">
<path d="M10.4976 9.44195C11.2014 12.2282 13.1899 14.0835 14.9393 13.5864C16.6903 13.0875 17.5394 10.426 16.8355 7.64137C16.1317 4.85508 14.1432 2.99983 12.3939 3.49695C10.6428 3.99579 9.79378 6.65737 10.4976 9.44195ZM30.5022 9.44195C29.7984 12.2282 27.8099 14.0835 26.0605 13.5864C24.3095 13.0875 23.4604 10.426 24.1643 7.64137C24.8681 4.85508 26.8566 2.99983 28.6059 3.49695C30.357 3.99579 31.206 6.65737 30.5022 9.44195ZM3.76165 21.0074C4.5304 23.0659 6.33782 24.3164 7.79845 23.8005C9.25907 23.2846 9.8194 21.197 9.05065 19.1367C8.2819 17.0799 6.47449 15.8294 5.01386 16.3453C3.55324 16.8612 2.9929 18.9488 3.76165 21.0091M37.2382 21.0074C36.4694 23.0659 34.662 24.3164 33.2014 23.8005C31.7407 23.2846 31.1804 21.197 31.9492 19.1367C32.7179 17.0799 34.5253 15.8294 35.9859 16.3453C37.4466 16.8612 38.0069 18.9488 37.2382 21.0091" fill="#FF7B7B"/>
<path opacity="0.5" d="M12.9319 26.2673C15.6413 20.7528 16.9978 17.9956 18.9453 17.3379C19.9538 16.9981 21.0459 16.9981 22.0544 17.3379C24.0019 17.9956 25.3583 20.7528 28.0678 26.2673L29.5677 29.3253C30.2681 30.7483 30.6166 31.4607 30.7003 31.9458C31.0437 33.96 29.5557 35.8152 27.5467 35.875C27.0633 35.8887 26.3082 35.682 24.7963 35.2668C24.2258 35.1017 23.6504 34.9542 23.0709 34.8244C21.374 34.4816 19.6257 34.4816 17.9288 34.8244C17.4983 34.9115 17.0661 35.0294 16.2034 35.2685C14.6915 35.682 13.9364 35.8887 13.453 35.875C11.4457 35.8152 9.95601 33.96 10.2994 31.9458C10.3814 31.4607 10.7316 30.75 11.432 29.3235L12.9319 26.2673Z" fill="#FF7B7B"/>
<path d="M62.056 20.812C62.056 21.7507 61.576 22.22 60.616 22.22C60.296 22.22 60.0293 22.1453 59.816 21.996C59.6027 21.8467 59.368 21.6227 59.112 21.324C58.472 20.62 57.9173 20.268 57.448 20.268C56.8293 20.268 56.2213 20.4493 55.624 20.812C55.048 21.1747 54.5787 21.6867 54.216 22.348C53.8533 23.0093 53.672 23.7453 53.672 24.556C53.672 25.452 53.8427 26.1987 54.184 26.796C54.5467 27.3933 55.1013 27.9053 55.848 28.332C56.1253 28.4813 56.4453 28.5987 56.808 28.684C57.192 28.7693 57.5227 28.812 57.8 28.812C58.4187 28.812 59.1973 28.5667 60.136 28.076C60.4773 27.9053 60.7653 27.7773 61 27.692C61.2347 27.6067 61.48 27.564 61.736 27.564C61.9707 27.564 62.2373 27.6707 62.536 27.884C62.8347 28.0973 62.984 28.364 62.984 28.684C62.984 29.324 62.6853 29.868 62.088 30.316C61.4907 30.7427 60.7547 31.0733 59.88 31.308C59.0267 31.5213 58.2053 31.628 57.416 31.628C56.1573 31.628 54.984 31.34 53.896 30.764C52.8293 30.188 51.976 29.3987 51.336 28.396C50.696 27.372 50.376 26.22 50.376 24.94C50.376 23.5747 50.6853 22.3267 51.304 21.196C51.9227 20.0653 52.7547 19.18 53.8 18.54C54.8453 17.9 55.9867 17.58 57.224 17.58C57.928 17.58 58.6533 17.708 59.4 17.964C60.1467 18.22 60.776 18.5933 61.288 19.084C61.8 19.5747 62.056 20.1507 62.056 20.812ZM80.256 29.964C80.256 30.4333 80 30.828 79.488 31.148C78.9973 31.468 78.5387 31.628 78.112 31.628C77.3013 31.628 76.6507 31.532 76.16 31.34C75.6907 31.1267 75.2533 30.7427 74.848 30.188C74.2933 30.6787 73.536 31.052 72.576 31.308C71.616 31.5427 70.7307 31.66 69.92 31.66C68.5973 31.66 67.5093 31.308 66.656 30.604C65.8027 29.8787 65.376 28.8227 65.376 27.436C65.376 26.8387 65.536 26.2947 65.856 25.804C66.176 25.292 66.6133 24.844 67.168 24.46C67.7867 24.0547 68.4907 23.7453 69.28 23.532C70.0693 23.2973 70.8907 23.18 71.744 23.18C72.192 23.18 72.7253 23.2653 73.344 23.436C73.9627 23.6067 74.4427 23.788 74.784 23.98V23.468C74.784 22.316 74.5067 21.5267 73.952 21.1C73.3973 20.652 72.5013 20.428 71.264 20.428C70.9013 20.428 70.5387 20.5027 70.176 20.652C69.8347 20.8013 69.44 21.004 68.992 21.26C68.3947 21.58 67.8293 21.74 67.296 21.74C67.104 21.74 66.9227 21.612 66.752 21.356C66.5813 21.0787 66.496 20.8333 66.496 20.62C66.496 20.0013 66.784 19.468 67.36 19.02C67.9573 18.572 68.6613 18.2413 69.472 18.028C70.2827 17.7933 71.008 17.676 71.648 17.676C72.288 17.676 73.024 17.804 73.856 18.06C74.688 18.2947 75.3707 18.6253 75.904 19.052C76.544 19.6067 77.0347 20.2573 77.376 21.004C77.7387 21.7293 77.92 22.5293 77.92 23.404C77.92 23.6813 77.8987 24.0973 77.856 24.652C77.8133 25.2493 77.792 25.7613 77.792 26.188C77.792 26.38 77.7707 26.668 77.728 27.052C77.6853 27.5213 77.664 27.8947 77.664 28.172C77.664 28.428 77.76 28.652 77.952 28.844C78.144 29.0147 78.368 29.1 78.624 29.1L79.52 29.068C79.7547 29.068 79.936 29.1533 80.064 29.324C80.192 29.4947 80.256 29.708 80.256 29.964ZM69.952 29.132C70.8693 29.132 71.6373 29.036 72.256 28.844C72.8747 28.652 73.6213 28.3 74.496 27.788C74.5813 27.4253 74.6347 26.9453 74.656 26.348C73.4827 25.7933 72.512 25.516 71.744 25.516C70.8693 25.516 70.0907 25.676 69.408 25.996C68.7253 26.316 68.384 26.8813 68.384 27.692C68.384 28.0973 68.5547 28.4387 68.896 28.716C69.2373 28.9933 69.5893 29.132 69.952 29.132ZM82.3835 20.364C82.0848 20.3213 81.8395 20.204 81.6475 20.012C81.4768 19.7987 81.3915 19.5427 81.3915 19.244C81.3915 18.86 81.5408 18.54 81.8395 18.284C81.9035 18.22 82.0102 18.1667 82.1595 18.124C82.3088 18.06 82.4262 18.0067 82.5115 17.964C82.9808 17.8147 83.2795 17.6973 83.4075 17.612C83.8982 17.3133 84.2288 16.8227 84.3995 16.14C84.5702 15.3293 84.6768 14.7747 84.7195 14.476C84.7622 14.0067 84.9115 13.6547 85.1675 13.42C85.4448 13.164 85.7862 13.036 86.1915 13.036C86.7248 13.036 87.0982 13.1747 87.3115 13.452C87.5248 13.7293 87.6315 14.2413 87.6315 14.988C87.6315 15.9693 87.3968 16.8973 86.9275 17.772C87.2262 17.772 87.7168 17.7507 88.3995 17.708C89.4235 17.6653 90.1382 17.644 90.5435 17.644C90.9062 17.644 91.2155 17.74 91.4715 17.932C91.7488 18.1027 91.8875 18.3587 91.8875 18.7C91.8875 19.5107 91.5142 19.9907 90.7675 20.14C90.0848 20.332 88.8475 20.4493 87.0555 20.492C86.9062 22.5827 86.8315 24.236 86.8315 25.452C86.8315 26.1987 86.8635 26.732 86.9275 27.052C87.0555 27.7133 87.2688 28.204 87.5675 28.524C87.8875 28.8227 88.3568 28.972 88.9755 28.972C89.2742 28.972 89.7222 28.8973 90.3195 28.748C90.6822 28.6413 90.9702 28.588 91.1835 28.588C91.4608 28.588 91.6742 28.684 91.8235 28.876C91.9728 29.068 92.0475 29.324 92.0475 29.644C92.0475 30.22 91.6742 30.7 90.9275 31.084C90.1808 31.4467 89.2955 31.628 88.2715 31.628C87.6315 31.628 87.0022 31.4787 86.3835 31.18C85.7648 30.86 85.2422 30.476 84.8155 30.028C84.7302 29.9853 84.6022 29.7507 84.4315 29.324C84.2822 28.8973 84.1328 28.428 83.9835 27.916C83.9195 27.66 83.8875 27.0413 83.8875 26.06C83.8875 25.1213 83.9515 23.5 84.0795 21.196L84.1115 20.492C83.9622 20.492 83.6848 20.4813 83.2795 20.46C82.8742 20.4173 82.5755 20.3853 82.3835 20.364ZM102.864 23.02C103.846 23.02 104.336 23.5747 104.336 24.684C104.336 25.26 104.134 25.676 103.728 25.932C103.344 26.188 102.864 26.316 102.288 26.316C102.118 26.316 101.936 26.3053 101.744 26.284C101.552 26.2627 101.35 26.2413 101.136 26.22C100.496 26.1133 99.9203 26.06 99.4083 26.06C99.0456 26.06 98.5016 26.1027 97.7763 26.188C97.0083 26.2733 96.4216 26.316 96.0163 26.316C95.4403 26.316 94.9283 26.2093 94.4803 25.996C94.0323 25.7613 93.8083 25.3773 93.8083 24.844C93.8083 24.0973 94.0856 23.6173 94.6403 23.404C95.1949 23.1693 95.9736 23.052 96.9763 23.052L98.0323 23.084C98.5443 23.1267 98.9389 23.148 99.2163 23.148L101.552 23.084L102.864 23.02ZM119.356 31.628C118.631 31.628 118.076 31.5213 117.692 31.308C117.308 31.0733 116.892 30.6467 116.444 30.028C115.889 30.5187 115.057 30.9133 113.948 31.212C112.86 31.5107 111.921 31.66 111.132 31.66C109.831 31.66 108.775 31.308 107.964 30.604C107.175 29.8787 106.78 28.8227 106.78 27.436C106.78 26.8387 106.94 26.2947 107.26 25.804C107.601 25.292 108.039 24.844 108.572 24.46C109.169 24.0547 109.873 23.7347 110.684 23.5C111.516 23.2653 112.273 23.148 112.956 23.148C114.108 23.148 115.132 23.2547 116.028 23.468V23.436C116.028 22.284 115.74 21.4947 115.164 21.068C114.609 20.62 113.713 20.396 112.476 20.396C111.687 20.396 111.004 20.748 110.428 21.452C110.215 21.7293 109.767 21.868 109.084 21.868C108.743 21.868 108.487 21.7293 108.316 21.452C108.167 21.1533 108.092 20.8547 108.092 20.556C108.092 19.9373 108.348 19.404 108.86 18.956C109.393 18.508 110.033 18.1773 110.78 17.964C111.527 17.7293 112.22 17.612 112.86 17.612C113.479 17.612 114.215 17.74 115.068 17.996C115.921 18.252 116.615 18.5933 117.148 19.02C117.788 19.5747 118.279 20.2253 118.62 20.972C118.983 21.6973 119.164 22.4973 119.164 23.372C119.164 23.6493 119.143 24.0653 119.1 24.62C119.057 25.26 119.036 25.7827 119.036 26.188C119.036 26.38 119.015 26.6253 118.972 26.924C118.929 27.308 118.908 27.628 118.908 27.884C118.908 28.1613 118.993 28.428 119.164 28.684C119.335 28.94 119.569 29.1533 119.868 29.324C120.145 29.4733 120.327 29.6333 120.412 29.804C120.497 29.9747 120.54 30.1667 120.54 30.38C120.54 30.5933 120.401 30.86 120.124 31.18C119.868 31.4787 119.612 31.628 119.356 31.628ZM112.956 25.516C112.124 25.516 111.388 25.676 110.748 25.996C110.108 26.316 109.788 26.8813 109.788 27.692C109.788 28.0973 109.927 28.4387 110.204 28.716C110.503 28.9933 110.823 29.132 111.164 29.132C112.081 29.132 112.849 29.036 113.468 28.844C114.087 28.652 114.833 28.3 115.708 27.788C115.815 27.4467 115.879 26.9667 115.9 26.348C115.9 26.1133 115.911 25.932 115.932 25.804C114.78 25.612 113.788 25.516 112.956 25.516ZM126.53 26.54C126.53 27.3507 126.647 27.98 126.882 28.428C127.138 28.8547 127.458 29.068 127.842 29.068C128.055 29.068 128.258 29.0573 128.45 29.036C128.642 28.9933 128.834 28.972 129.026 28.972C129.239 28.972 129.421 29.0787 129.57 29.292C129.741 29.5053 129.826 29.74 129.826 29.996C129.826 30.508 129.581 30.9133 129.09 31.212C128.621 31.4893 127.981 31.628 127.17 31.628C126.594 31.628 126.007 31.4573 125.41 31.116C124.834 30.7533 124.354 30.1987 123.97 29.452C123.586 28.684 123.394 27.7347 123.394 26.604C123.394 24.172 123.437 22.1133 123.522 20.428C123.629 18.4227 123.682 15.8947 123.682 12.844C123.682 11.884 123.735 11.212 123.842 10.828C123.97 10.5293 124.173 10.3053 124.45 10.156C124.749 9.98533 125.058 9.9 125.378 9.9C125.698 9.9 125.975 9.95333 126.21 10.06C126.466 10.1667 126.637 10.3373 126.722 10.572C126.807 10.828 126.861 11.084 126.882 11.34C126.925 11.5747 126.946 11.916 126.946 12.364C126.946 13.2387 126.914 14.0813 126.85 14.892C126.807 15.8733 126.786 16.588 126.786 17.036C126.615 20.7907 126.53 23.9587 126.53 26.54ZM144.617 21.228C144.787 21.5267 144.926 21.964 145.033 22.54C145.139 23.0947 145.193 23.596 145.193 24.044C145.193 24.6413 145.097 25.388 144.905 26.284C144.713 27.1587 144.553 27.7453 144.425 28.044C143.273 30.4333 141.054 31.628 137.769 31.628C136.723 31.628 135.699 31.2867 134.697 30.604C133.694 29.9 132.979 29.0787 132.553 28.14L132.329 27.5C132.307 27.4147 132.19 27.0947 131.977 26.54C131.785 25.964 131.689 25.5267 131.689 25.228C131.689 24.3533 131.902 23.34 132.329 22.188C132.755 21.036 133.246 20.1187 133.801 19.436C134.163 18.9453 134.857 18.5293 135.881 18.188C136.905 17.8253 137.811 17.644 138.601 17.644C140.073 17.644 141.257 17.9213 142.153 18.476C143.07 19.0307 143.891 19.948 144.617 21.228ZM141.673 26.38C141.758 26.2307 141.833 25.964 141.897 25.58C141.961 25.196 141.993 24.748 141.993 24.236C141.993 23.6173 141.875 23.0093 141.641 22.412C141.427 21.8147 141.107 21.3027 140.681 20.876C140.659 20.8333 140.585 20.7693 140.457 20.684C140.329 20.5773 140.126 20.4813 139.849 20.396C139.571 20.2893 139.219 20.236 138.793 20.236C137.961 20.236 137.257 20.4813 136.681 20.972C136.105 21.4627 135.667 22.0707 135.369 22.796C135.091 23.5213 134.953 24.236 134.953 24.94C134.953 25.132 135.017 25.5267 135.145 26.124C135.273 26.7213 135.369 27.1053 135.433 27.276C135.603 27.5747 135.934 27.9267 136.425 28.332C136.915 28.716 137.47 28.908 138.089 28.908C139.049 28.908 139.795 28.684 140.329 28.236C140.883 27.788 141.331 27.1693 141.673 26.38ZM159.811 31.436C160.387 31.8413 160.771 32.2893 160.963 32.78C161.176 33.2707 161.283 33.9533 161.283 34.828C161.283 35.2547 161.155 35.6813 160.899 36.108C160.664 36.5347 160.419 36.844 160.163 37.036C158.136 38.1453 156.109 38.7 154.083 38.7C153.08 38.7 152.216 38.572 151.491 38.316C150.765 38.06 150.083 37.7187 149.443 37.292C149.016 36.972 148.664 36.524 148.387 35.948C148.131 35.3933 148.003 34.8387 148.003 34.284C148.003 33.516 148.237 32.844 148.707 32.268C149.197 31.692 149.848 31.276 150.659 31.02C150.509 30.7 150.435 30.3267 150.435 29.9C150.435 29.4947 150.733 28.8867 151.331 28.076C150.307 27.7347 149.496 27.1267 148.899 26.252C148.323 25.3773 148.035 24.3533 148.035 23.18C148.035 22.4547 148.205 21.8147 148.547 21.26C148.888 20.684 149.4 20.0227 150.083 19.276C150.552 18.764 151.149 18.3907 151.875 18.156C152.6 17.9213 153.507 17.804 154.595 17.804C155.363 17.804 156.312 17.9747 157.443 18.316C158.787 17.3773 159.971 16.908 160.995 16.908C161.251 16.908 161.539 16.972 161.859 17.1C162.2 17.228 162.456 17.356 162.627 17.484C162.755 17.7187 162.819 18.1133 162.819 18.668C162.819 18.8813 162.723 19.0947 162.531 19.308C162.36 19.5 162.136 19.596 161.859 19.596L161.091 19.564C160.707 19.5213 160.408 19.5 160.195 19.5C159.96 19.5 159.608 19.5213 159.139 19.564C159.587 20.0973 159.928 20.6627 160.163 21.26C160.419 21.8573 160.547 22.636 160.547 23.596C160.547 24.3213 160.28 25.0787 159.747 25.868C159.213 26.6573 158.584 27.276 157.859 27.724C156.749 28.3213 155.459 28.6307 153.987 28.652C153.816 28.8227 153.667 28.9827 153.539 29.132C153.432 29.26 153.379 29.3667 153.379 29.452C153.379 29.6867 153.581 29.868 153.987 29.996C154.392 30.124 155.011 30.22 155.843 30.284C156.483 30.3267 157.187 30.4653 157.955 30.7C158.744 30.9133 159.363 31.1587 159.811 31.436ZM154.179 26.028C155.16 26.028 155.949 25.7613 156.547 25.228C157.144 24.6947 157.443 23.9373 157.443 22.956C157.443 22.2093 157.176 21.6013 156.643 21.132C156.109 20.6627 155.427 20.428 154.595 20.428C154.061 20.428 153.485 20.524 152.867 20.716C152.269 20.8867 151.843 21.164 151.587 21.548C151.459 21.7187 151.331 22.0493 151.203 22.54C151.075 23.0093 151.011 23.372 151.011 23.628C151.011 23.9907 151.16 24.364 151.459 24.748C151.779 25.1107 152.184 25.42 152.675 25.676C153.187 25.9107 153.688 26.028 154.179 26.028ZM156.195 32.972C155.021 32.8653 154.189 32.7587 153.699 32.652C153.229 32.5667 152.845 32.46 152.547 32.332C151.459 32.908 150.915 33.5373 150.915 34.22C150.915 34.86 151.245 35.34 151.907 35.66C152.568 36.0013 153.325 36.172 154.179 36.172C154.563 36.172 155.085 36.1293 155.747 36.044C156.408 35.9587 156.963 35.8093 157.411 35.596C157.709 35.4467 157.933 35.2973 158.083 35.148C158.232 35.02 158.307 34.7747 158.307 34.412C158.307 33.964 158.072 33.6227 157.603 33.388C157.133 33.1533 156.664 33.0147 156.195 32.972ZM164.057 20.716C163.886 20.716 163.726 20.652 163.577 20.524C163.449 20.3747 163.385 20.204 163.385 20.012C163.385 19.5213 163.598 19.0627 164.025 18.636C164.153 18.572 164.409 18.4653 164.793 18.316C165.177 18.1667 165.518 18.092 165.817 18.092C166.627 18.092 167.289 18.316 167.801 18.764C168.313 19.1907 168.569 19.8093 168.569 20.62C168.569 20.8547 168.526 21.356 168.441 22.124C168.355 23.02 168.313 23.7133 168.313 24.204C168.313 25.6973 168.515 26.9027 168.921 27.82C169.07 28.1187 169.305 28.3533 169.625 28.524C169.945 28.6947 170.233 28.78 170.489 28.78C171.107 28.78 171.609 28.6733 171.993 28.46C172.377 28.2467 172.793 27.9053 173.241 27.436C173.689 26.9667 173.977 26.4333 174.105 25.836C174.254 25.2387 174.361 24.4173 174.425 23.372C174.467 22.6893 174.51 22.188 174.553 21.868C174.659 20.844 174.713 19.9693 174.713 19.244C174.713 18.7747 174.841 18.3907 175.097 18.092C175.353 17.772 175.705 17.612 176.153 17.612C176.409 17.612 176.697 17.6973 177.017 17.868C177.358 18.0173 177.582 18.1987 177.689 18.412C177.817 18.6253 177.881 18.9773 177.881 19.468C177.881 19.724 177.849 19.9693 177.785 20.204C177.635 20.7373 177.561 21.3773 177.561 22.124L177.593 23.788C177.593 25.3027 177.699 26.4227 177.913 27.148C178.019 27.4893 178.169 27.8413 178.361 28.204C178.553 28.5453 178.734 28.8333 178.905 29.068C179.331 29.5373 179.609 29.868 179.737 30.06C179.865 30.2307 179.929 30.4013 179.929 30.572C179.929 30.828 179.801 31.0733 179.545 31.308C179.31 31.5213 179.054 31.628 178.777 31.628C177.987 31.628 177.305 31.3613 176.729 30.828C176.153 30.2947 175.726 29.6013 175.449 28.748C174.723 29.58 174.051 30.252 173.433 30.764C173.006 31.0627 172.483 31.2867 171.865 31.436C171.246 31.564 170.627 31.628 170.009 31.628C169.177 31.628 168.334 31.2867 167.481 30.604C166.627 29.9213 166.051 29.132 165.753 28.236C165.731 28.1933 165.667 28.0227 165.561 27.724C165.475 27.4253 165.433 26.9773 165.433 26.38C165.433 25.5907 165.475 24.5987 165.561 23.404C165.625 22.636 165.657 21.932 165.657 21.292C165.657 21.1 165.582 20.94 165.433 20.812C165.305 20.684 165.155 20.62 164.985 20.62C164.857 20.62 164.707 20.6413 164.537 20.684C164.387 20.7053 164.227 20.716 164.057 20.716ZM182.032 24.172C182.032 22.8707 182.32 21.7933 182.896 20.94C183.472 20.0653 184.272 19.244 185.296 18.476C185.595 18.2627 186.096 18.0813 186.8 17.932C187.504 17.7613 188.123 17.676 188.656 17.676C189.296 17.676 189.968 17.8147 190.672 18.092C191.398 18.348 191.984 18.6467 192.432 18.988C193.222 19.564 193.766 20.236 194.064 21.004C194.363 21.7507 194.512 22.6467 194.512 23.692C194.512 24.14 194.256 24.5773 193.744 25.004C193.254 25.4093 192.72 25.612 192.144 25.612L190.928 25.58C190.31 25.58 189.424 25.6013 188.272 25.644L187.6 25.676C187.131 25.7187 186.779 25.74 186.544 25.74C186.203 25.74 185.734 25.6973 185.136 25.612C185.222 26.6147 185.595 27.404 186.256 27.98C186.918 28.5347 187.632 28.812 188.4 28.812C189.744 28.812 190.683 28.5453 191.216 28.012C191.664 27.692 191.963 27.4893 192.112 27.404C192.262 27.3187 192.496 27.276 192.816 27.276C193.158 27.276 193.456 27.436 193.712 27.756C193.968 28.076 194.096 28.396 194.096 28.716C194.096 29.0787 193.872 29.452 193.424 29.836C192.998 30.1987 192.411 30.5827 191.664 30.988C191.259 31.1587 190.704 31.308 190 31.436C189.296 31.564 188.71 31.628 188.24 31.628C187.494 31.628 186.662 31.4147 185.744 30.988C184.827 30.54 184.144 30.0493 183.696 29.516C183.248 28.9827 182.854 28.2253 182.512 27.244C182.192 26.2627 182.032 25.2387 182.032 24.172ZM188.4 23.308C189.915 23.308 191.024 23.2547 191.728 23.148C191.686 22.5293 191.494 22.028 191.152 21.644C190.811 21.2387 190.342 20.8973 189.744 20.62C189.552 20.5347 189.382 20.4707 189.232 20.428C189.083 20.3853 188.912 20.364 188.72 20.364C187.739 20.364 186.907 20.6307 186.224 21.164C185.563 21.6973 185.168 22.38 185.04 23.212C186.107 23.276 187.227 23.308 188.4 23.308Z" fill="#FF7B7B"/>
</svg>
